<svg width="160" height="165" viewBox="0 0 160 165" fill="none" xmlns="http://www.w3.org/2000/svg">
<path d="M18.1603 39.2165C13.9675 38.3252 6.64226 34.3328 4.32842 30.8341C2.57998 28.1904 5.67874 20.702 7.22621 17.9897M21.7995 31.3401C20.818 30.4551 19.6878 29.6759 18.6743 28.8192C13.1196 24.1241 6.67753 19.3161 3.54198 12.6085C1.73962 8.75288 4.63908 3.46375 9.43923 3.02008C12.606 2.72738 15.8288 5.73363 17.4739 7.58175M29.9425 24.5394C27.3675 20.4962 24.4825 16.5744 21.6012 12.7456C20.2825 10.9919 18.9333 9.22143 17.4739 7.58175M17.4739 7.58175C20.2294 5.79234 22.5475 3.03315 26.3808 4.34688C31.1857 6.40259 34.2006 14.6271 36.0795 19.0282M99.7373 91.7358C99.4185 91.9821 97.6695 93.5052 94.4904 96.3051M132.826 99.9715C130.553 103.522 127.952 106.852 124.913 109.783C124.135 110.533 122.077 112.338 118.737 115.197M38.8313 91.9712C40.4909 86.8946 43.2792 80.7514 46.2065 76.2743C47.1125 74.8882 49.2848 71.9706 52.7233 67.5214M154.711 161.081C164.474 141.732 122.402 73.108 91.0783 42.1682C75.6134 26.8967 54.5739 16.0086 36.2518 22.3983C31.7979 23.9516 28.2538 27.2166 25.0559 30.7236C14.1887 42.6407 17.9273 60.5018 24.2829 73.7255C36.158 98.4269 66.0352 120.96 90.2154 135.518C109.008 146.828 143.1 166.105 154.711 161.081Z" stroke="#FAC5C5" stroke-opacity="0.7" stroke-width="6" stroke-linecap="round" stroke-linejoin="round"/>
</svg>
