<svg width="172" height="189" viewBox="0 0 172 189" fill="none" xmlns="http://www.w3.org/2000/svg">
<path d="M38.4298 67.0058C28.5656 75.7279 19.6461 87.39 18.9771 101.047C18.4507 111.797 23.4653 121.908 31.3036 129.07C40.1746 137.177 51.6011 141.875 63.4024 143.658C69.7818 144.622 76.296 144.637 82.6932 143.821C83.4674 143.722 84.2384 143.604 85.0099 143.484C85.3795 143.427 85.7492 143.377 86.1214 143.34C86.2445 143.328 87.0027 143.297 86.2774 143.323C86.546 143.313 86.8143 143.302 87.0831 143.299C88.8974 143.278 90.6879 143.5 92.4741 143.797C93.2946 143.933 91.9035 143.67 92.7219 143.844C92.9699 143.897 93.2183 143.948 93.4659 144.002C93.8823 144.095 94.2975 144.192 94.7114 144.295C95.7198 144.545 96.7211 144.823 97.7165 145.12C99.641 145.694 101.544 146.338 103.439 147.002C106.85 148.197 110.238 149.503 113.73 150.448C115.339 150.884 116.992 151.258 118.653 151.411C121.051 151.631 123.419 150.538 125.555 149.521C133.202 145.881 139.591 138.761 140.488 130.099C140.806 127.026 140.272 123.787 138.347 121.303C137.922 120.753 138.45 121.479 138.508 121.601C138.881 122.392 138.86 123.403 138.334 124.205C137.895 124.876 137.691 124.89 137.928 124.689C136.622 125.798 137.246 125.076 137.443 125.023C137.536 124.998 137.728 124.928 137.808 124.874C137.107 125.344 137.199 125.071 137.657 124.944C137.822 124.898 137.988 124.855 138.154 124.812C138.636 124.686 139.12 124.565 139.6 124.431C142.584 123.6 145.34 122.409 147.828 120.538C151.268 117.952 153.643 114.112 154.967 110.06C156.36 105.796 157.052 100.877 156.148 96.4313C155.453 93.0157 153.688 90.0019 151.382 87.4235C148.994 84.7529 146.2 82.4662 143.621 79.9881C140.203 76.7044 137.192 73.0591 134.146 69.4357C127.62 61.6724 121.213 53.8103 114.761 45.9849C112.329 43.0351 109.984 39.9545 107.223 37.2999C104.613 34.7913 101.725 32.5658 98.5694 30.7878C87.0491 24.2985 72.7861 23.2536 60.5261 28.2966C54.8596 30.6276 49.7802 34.3956 46.0944 39.3061C42.3241 44.3289 40.3233 50.6116 40.2743 56.876C40.2466 60.415 40.7453 63.941 41.6804 67.3507C42.1006 68.8829 43.4948 69.9943 45.1351 69.6734C46.6072 69.3854 47.8798 67.7578 47.4577 66.2187C46.9962 64.536 46.6301 62.8288 46.3976 61.0989C46.3375 60.6518 46.2859 60.2037 46.2436 59.7548C46.2297 59.6072 46.2192 59.4592 46.2046 59.3117C46.1313 58.5633 46.2269 59.9305 46.194 59.1846C46.1591 58.3972 46.1379 57.6112 46.155 56.8229C46.1879 55.3157 46.3504 53.8263 46.5997 52.3406C46.7146 51.655 46.4556 52.975 46.6095 52.3001C46.6533 52.108 46.6927 51.9147 46.7376 51.7226C46.8117 51.4052 46.8915 51.089 46.9772 50.7744C47.163 50.0917 47.376 49.4162 47.6159 48.7507C47.8526 48.0938 48.1241 47.454 48.4023 46.8141C48.4719 46.6542 48.7748 46.059 48.3924 46.8195C48.4488 46.7075 48.5018 46.5941 48.5599 46.4828C48.7334 46.1503 48.9056 45.8178 49.0892 45.4908C49.7728 44.2733 50.5533 43.1108 51.4179 42.0145C51.6288 41.747 51.8478 41.4869 52.0647 41.2244C52.394 40.8256 51.9404 41.3581 51.9123 41.3998C52.0116 41.2522 52.1654 41.1169 52.2858 40.9861C52.769 40.4614 53.2723 39.955 53.793 39.4674C54.7964 38.5281 55.8654 37.6596 56.9859 36.8639C57.1141 36.7728 57.2449 36.6853 57.3725 36.5935C57.9236 36.1974 56.768 36.9712 57.3439 36.6106C57.6119 36.4429 57.8753 36.2685 58.1447 36.1032C58.7678 35.7209 59.4038 35.3593 60.0504 35.0182C61.3029 34.3576 62.5958 33.7743 63.9178 33.2671C64.2517 33.1388 64.5885 33.0185 64.9249 32.8972C65.0475 32.8529 65.1716 32.8123 65.2947 32.7695C64.5069 33.043 65.159 32.8174 65.3163 32.7677C66.037 32.5397 66.7644 32.3335 67.4973 32.148C68.9159 31.7895 70.3543 31.5105 71.8037 31.3101C72.5028 31.2133 73.2045 31.1346 73.9078 31.0744C74.1096 31.0571 74.3118 31.0447 74.5135 31.0269C73.8217 31.088 74.2153 31.0444 74.3698 31.0369C74.8103 31.0159 75.2504 30.9947 75.6913 30.984C77.1955 30.9475 78.7015 30.9932 80.2007 31.1202C80.9228 31.1813 81.6434 31.2612 82.3612 31.3601C82.7046 31.4073 83.0472 31.4589 83.3893 31.5146C83.595 31.5483 83.8003 31.5834 84.0056 31.6201C84.1425 31.6445 84.2794 31.6696 84.4161 31.6956C84.0531 31.625 83.9777 31.6109 84.1896 31.6535C85.6932 32.0222 87.1904 32.3479 88.6665 32.825C90.1904 33.3173 91.6851 33.8995 93.1398 34.5694C93.2702 34.6295 93.3998 34.6915 93.5302 34.7518C92.8203 34.4229 93.4926 34.7352 93.6194 34.7987C93.9427 34.9605 94.2635 35.1265 94.5821 35.2968C95.353 35.7091 96.1101 36.1467 96.852 36.6088C98.2375 37.4718 99.5695 38.4205 100.838 39.4474C101.132 39.6847 101.42 39.9281 101.708 40.1718C101.076 39.6371 102.015 40.4518 102.136 40.5631C102.818 41.1893 103.478 41.8391 104.115 42.5103C106.803 45.341 109.197 48.4816 111.676 51.4936C114.731 55.2057 117.778 58.9241 120.837 62.6331C124.079 66.5643 127.333 70.4867 130.617 74.3823C133.55 77.8612 136.478 81.3054 139.787 84.4369C142.265 86.7814 144.921 88.9762 147.172 91.5488C147.615 92.0562 148.041 92.5801 148.437 93.1256C148.462 93.1606 148.793 93.5964 148.779 93.6126C148.779 93.6126 148.4 92.9925 148.715 93.5354C148.93 93.9045 149.15 94.2675 149.344 94.6483C149.646 95.241 149.901 95.854 150.122 96.4809C149.836 95.6708 150.228 96.9284 150.279 97.148C150.377 97.5697 150.457 97.9958 150.519 98.4243C150.574 98.7997 150.612 99.1767 150.644 99.5547C150.585 98.8559 150.651 100.056 150.652 100.249C150.654 101.324 150.574 102.4 150.438 103.467C150.144 105.771 149.558 108.06 148.611 110.234C148.35 110.834 148.072 111.375 147.513 112.257C147.24 112.688 146.949 113.108 146.639 113.514C146.54 113.644 146.434 113.769 146.336 113.9C146.114 114.166 146.132 114.15 146.388 113.854C146.285 113.972 146.179 114.088 146.072 114.202C145.563 114.748 145.017 115.258 144.438 115.73C144.111 115.996 143.771 116.242 143.429 116.489C143.281 116.596 142.946 116.752 143.578 116.39C143.349 116.521 143.129 116.671 142.9 116.804C142.358 117.118 141.799 117.404 141.227 117.662C140.688 117.905 139.917 118.357 139.32 118.412C140.152 118.335 139.492 118.353 139.159 118.454C138.929 118.524 138.698 118.59 138.467 118.654C137.987 118.788 137.503 118.91 137.021 119.035C136.245 119.238 135.437 119.428 134.729 119.809C133.12 120.674 132.403 122.599 133.26 124.257C133.432 124.589 133.683 124.908 133.931 125.196C134.404 125.747 133.616 124.566 133.944 125.212C134.074 125.468 134.197 125.723 134.318 125.983C134.335 126.019 134.417 126.261 134.425 126.261C134.267 125.775 134.234 125.678 134.326 125.972C134.356 126.071 134.384 126.172 134.41 126.273C134.551 126.812 134.609 127.355 134.689 127.904C134.779 128.519 134.705 127.226 134.684 127.858C134.677 128.039 134.691 128.223 134.689 128.404C134.686 128.782 134.666 129.16 134.632 129.536C134.602 129.864 134.562 130.19 134.511 130.515C134.487 130.668 134.336 131.341 134.508 130.578C134.478 130.713 134.451 130.849 134.419 130.984C134.222 131.833 133.961 132.667 133.646 133.479C133.507 133.837 133.352 134.185 133.2 134.536C132.888 135.254 133.5 134.002 133.12 134.697C133.043 134.837 132.972 134.98 132.895 135.121C132.419 135.997 131.88 136.838 131.287 137.639C131.027 137.99 130.754 138.327 130.479 138.666C129.927 139.345 130.901 138.233 130.29 138.876C130.165 139.007 130.043 139.142 129.917 139.273C129.129 140.092 128.281 140.853 127.387 141.553C126.427 142.304 126.258 142.42 125.272 143.006C124.136 143.68 122.951 144.272 121.734 144.786C121.195 145.014 120.648 145.226 120.097 145.424C120.426 145.306 119.156 145.76 120.029 145.593C119.93 145.612 119.803 145.582 119.7 145.584C118.992 145.593 118.284 145.438 117.586 145.342C116.951 145.255 118.077 145.461 117.665 145.36C117.505 145.32 117.343 145.293 117.182 145.257C116.816 145.176 116.452 145.088 116.088 144.994C115.278 144.786 114.474 144.552 113.675 144.304C106.415 142.051 99.4317 138.908 91.8632 137.761C90.1379 137.5 88.3916 137.368 86.6465 137.449C84.8609 137.532 83.1195 137.851 81.3495 138.071C80.6153 138.163 79.8797 138.242 79.1429 138.308C78.7588 138.343 78.3742 138.375 77.9896 138.403C77.9502 138.406 77.2584 138.452 77.7371 138.422C78.1961 138.393 77.3555 138.442 77.2761 138.446C75.7535 138.525 74.2282 138.552 72.7039 138.527C69.7143 138.479 66.7277 138.231 63.7714 137.785C63.0447 137.675 62.3215 137.548 61.598 137.419C61.445 137.392 61.055 137.312 61.7494 137.45C61.5543 137.411 61.3589 137.373 61.1639 137.333C60.775 137.254 60.387 137.171 59.9996 137.085C58.5936 136.771 57.1981 136.41 55.8163 136.002C53.1226 135.208 50.4811 134.234 47.9222 133.076C47.6373 132.948 47.3556 132.812 47.071 132.683C46.4622 132.407 47.6811 132.99 47.0847 132.691C46.9182 132.607 46.7503 132.526 46.5837 132.443C45.9769 132.139 45.3754 131.825 44.78 131.499C43.6074 130.858 42.4583 130.174 41.3374 129.446C40.24 128.733 39.1697 127.979 38.1318 127.182C37.6213 126.79 37.1187 126.388 36.6248 125.975C36.4286 125.811 35.6292 125.24 36.4273 125.814C36.1529 125.616 35.9033 125.349 35.654 125.121C33.8269 123.445 32.1405 121.613 30.6502 119.631C30.349 119.23 29.7324 118.63 29.5951 118.153C29.6007 118.172 30.028 118.819 29.7603 118.399C29.6722 118.261 29.5813 118.125 29.4931 117.986C29.3176 117.711 29.1459 117.432 28.9781 117.152C28.3678 116.131 27.8108 115.079 27.3135 113.998C27.0665 113.462 26.8344 112.918 26.618 112.369C26.5197 112.119 26.4247 111.869 26.3329 111.617C26.2779 111.466 26.2272 111.313 26.1715 111.163C25.9852 110.659 26.3755 111.829 26.2096 111.277C25.8693 110.144 25.55 109.013 25.321 107.851C25.09 106.68 24.9473 105.5 24.8445 104.311C24.7921 103.705 24.8717 105.016 24.8525 104.407C24.8482 104.27 24.8396 104.133 24.8344 103.996C24.8232 103.693 24.8166 103.39 24.8146 103.086C24.8106 102.474 24.8256 101.862 24.8588 101.25C24.9271 99.9947 25.0825 98.75 25.292 97.5108C25.335 97.2569 25.2739 96.8172 25.2788 97.5611C25.278 97.4251 25.3394 97.2634 25.3679 97.1293C25.4358 96.8105 25.5082 96.4926 25.5856 96.176C25.7429 95.531 25.9192 94.8907 26.1131 94.2558C26.517 92.9336 26.9987 91.6357 27.5459 90.3664C27.6879 90.0372 27.8343 89.7102 27.9849 89.3849C28.0542 89.2354 28.1249 89.0868 28.1952 88.9378C27.8427 89.6866 28.1425 89.0525 28.2147 88.9083C28.5496 88.2396 28.9021 87.5797 29.2705 86.9288C30.8785 84.0868 32.7853 81.4193 34.8806 78.917C35.0348 78.7326 35.1913 78.5503 35.3466 78.3668C35.855 77.7667 35.0501 78.6818 35.3869 78.3205C35.6953 77.9901 35.988 77.644 36.2934 77.3104C36.8638 76.6873 37.4457 76.0745 38.0377 75.4717C39.415 74.0693 40.8482 72.7242 42.3205 71.4222C43.4738 70.4025 43.6879 68.4149 42.5823 67.2683C41.4772 66.1202 39.6658 65.9129 38.4298 67.0058Z" fill="#BC9797"/>
<path d="M40.0355 66.8463C33.6172 74.7672 32.414 86.3199 36.888 95.4444C41.6497 105.156 51.6983 111.016 61.7414 113.973C67.0857 115.547 72.5327 116.111 77.8469 117.371C83.2235 118.645 88.4989 120.299 93.7292 122.074C96.3351 122.958 98.9315 123.87 101.53 124.776C103.699 125.532 105.861 126.374 108.079 126.981C111.084 127.803 114.222 128.204 117.337 128.149C123.268 128.043 129.442 126.646 134.218 122.967C136.312 121.355 138.036 119.139 138.876 116.617C139.844 113.712 139.521 110.675 138.491 107.843C137.274 104.497 134.958 101.542 132.486 99.0265C128.519 94.9897 123.869 91.6745 119.15 88.5837C114.384 85.4615 109.5 82.4986 105.043 78.9327C103.088 77.3688 101.265 75.6569 99.4514 73.7235C97.6128 71.7633 95.87 69.7163 94.1104 67.6859C90.478 63.4949 86.7118 59.252 82.089 56.1196C77.8936 53.2768 72.8463 51.1258 67.8841 50.0985C62.8414 49.0545 57.5955 49.1076 52.7965 51.1469C48.311 53.0531 44.5503 56.6166 42.5291 61.0516C41.6037 63.0822 41.1302 65.3643 41.2209 67.5962C41.2852 69.1831 42.2713 70.6113 43.9731 70.7186C45.4333 70.8106 47.1603 69.5627 47.0954 67.9664C47.074 67.4391 47.0764 66.9137 47.1204 66.3876C47.1421 66.1277 47.1808 65.8713 47.211 65.6127C47.3057 64.7994 47.1236 65.9402 47.2374 65.4617C47.3474 65.0004 47.4739 64.5454 47.631 64.0976C47.7166 63.8537 47.8095 63.6123 47.9093 63.3739C47.9761 63.2146 48.0458 63.0567 48.1186 62.9001C47.9933 63.1589 47.9789 63.1941 48.0751 63.0059C48.5561 62.1122 49.1182 61.3001 49.7336 60.4953C49.8049 60.4021 50.1169 60.0591 49.7319 60.4869C49.9099 60.2892 50.0917 60.0949 50.2784 59.9052C50.7168 59.4602 51.1796 59.0395 51.6631 58.6441C52.0107 58.3599 52.3713 58.0939 52.7358 57.832C52.1851 58.2275 52.9112 57.7213 52.981 57.6783C53.211 57.5369 53.4441 57.4004 53.6801 57.2693C54.0735 57.0513 54.4744 56.8472 54.8828 56.6585C55.1275 56.5456 55.3747 56.4379 55.6241 56.3363C55.7248 56.2951 56.7511 55.9295 56.1628 56.1188C57.1409 55.8038 58.1468 55.5869 59.1636 55.4429C60.3523 55.2745 60.9162 55.2441 62.3011 55.2898C63.4018 55.326 64.4994 55.4381 65.5864 55.6135C65.5687 55.6106 66.5392 55.7888 66.0354 55.6884C66.2331 55.7278 66.4305 55.7714 66.6272 55.8153C67.319 55.9706 68.0052 56.1503 68.6853 56.3504C69.7608 56.6667 70.8207 57.0353 71.864 57.4454C72.3395 57.6323 72.8116 57.8282 73.2801 58.0317C73.5612 58.154 73.8411 58.2789 74.1196 58.4067C74.3052 58.4918 74.4902 58.5783 74.6748 58.6657C74.447 58.5554 74.4931 58.5786 74.8127 58.7352C79.4342 61.0662 82.6526 63.8212 86.0885 67.5242C89.5907 71.2986 92.767 75.3704 96.3953 79.0286C100.25 82.9147 104.675 86.1646 109.232 89.171C117.238 94.4522 125.975 99.1688 131.547 107.085C131.1 106.451 131.626 107.22 131.771 107.462C131.97 107.793 132.16 108.129 132.339 108.472C132.669 109.106 132.929 109.761 133.198 110.422C133.389 110.893 133.12 110.177 133.115 110.171C133.187 110.241 133.225 110.54 133.252 110.638C133.335 110.94 133.406 111.245 133.464 111.553C133.51 111.799 133.549 112.047 133.578 112.296C133.587 112.376 133.572 112.676 133.619 112.734C133.589 112.223 133.58 112.117 133.592 112.414C133.595 112.509 133.596 112.604 133.596 112.698C133.595 113.151 133.381 113.789 133.468 114.21C133.37 113.736 133.616 113.579 133.504 113.999C133.481 114.085 133.462 114.172 133.439 114.258C133.359 114.558 133.263 114.853 133.152 115.143C133.076 115.339 132.941 115.549 132.892 115.752C133.067 115.037 133.15 115.253 132.983 115.539C132.916 115.654 132.854 115.772 132.785 115.886C132.506 116.354 132.178 116.775 131.847 117.205C131.511 117.644 132.397 116.634 132.002 117.024C131.937 117.088 131.876 117.159 131.812 117.226C131.617 117.429 131.415 117.625 131.207 117.814C130.777 118.205 130.32 118.555 129.853 118.901C129.23 119.363 130.47 118.541 129.701 119.001C129.46 119.145 129.223 119.292 128.979 119.429C128.431 119.737 127.868 120.017 127.294 120.272C126.748 120.515 126.192 120.727 125.632 120.934C125.388 121.024 125.038 121.287 125.727 120.905C125.593 120.98 125.395 121.011 125.248 121.056C124.924 121.155 124.598 121.247 124.271 121.334C122.981 121.674 121.666 121.921 120.342 122.085C119.989 122.129 119.636 122.166 119.282 122.198C119.083 122.216 118.059 122.372 118.963 122.228C118.27 122.338 117.508 122.285 116.806 122.278C115.425 122.264 114.044 122.163 112.676 121.968C112.321 121.917 111.969 121.851 111.615 121.797C110.979 121.699 112.278 121.949 111.652 121.804C111.537 121.777 111.42 121.756 111.304 121.73C110.613 121.579 109.927 121.402 109.25 121.197C106.884 120.48 104.558 119.599 102.224 118.784C92.1159 115.255 81.9884 111.867 71.3946 110.115C66.855 109.364 62.018 108.143 57.4944 106.196C53.5536 104.5 49.2099 101.748 46.3082 98.7019C45.5347 97.89 44.8082 97.0328 44.1394 96.1325C43.9572 95.8872 43.7786 95.639 43.6057 95.387C43.9305 95.86 43.3771 95.0247 43.3736 95.0193C43.0497 94.4966 42.7443 93.9626 42.4598 93.4175C41.9304 92.4036 41.4718 91.3522 41.0906 90.2735C41.2826 90.8167 40.9832 89.9225 40.9766 89.9006C40.8946 89.6245 40.818 89.3467 40.7468 89.0677C40.6043 88.5099 40.4828 87.9466 40.3825 87.3799C40.0041 85.2436 39.9536 83.6288 40.217 81.2449C40.2802 80.6721 40.3607 80.1 40.4665 79.5334C40.3641 80.0816 40.5531 79.1557 40.556 79.143C40.5991 78.9557 40.6444 78.7687 40.6916 78.5825C40.9751 77.4653 41.3381 76.3683 41.7755 75.302C41.8847 75.0354 42.0029 74.773 42.1179 74.5089C42.488 73.6588 41.8502 74.9772 42.2872 74.1594C42.5135 73.7361 42.7375 73.3128 42.9825 72.8997C43.5708 71.9069 44.2363 70.9667 44.9625 70.0705C45.964 68.8347 45.3433 66.8032 44.1107 65.9953C42.6695 65.0498 41.0398 65.6068 40.0355 66.8463Z" fill="#BC9797"/>
<path d="M37.6815 69.0706C37.4665 69.043 37.2533 69.0091 37.039 68.9773C36.3089 68.8691 37.6256 69.1363 36.8907 68.9432C36.4665 68.8316 36.0406 68.7339 35.6193 68.6102C34.71 68.3433 33.8166 68.0249 32.935 67.6779C31.9415 67.2866 30.9632 66.858 29.9951 66.4083C29.7782 66.3076 29.5619 66.2056 29.3461 66.1026C29.0727 65.9722 29.5805 66.2213 29.1225 65.9929C28.6012 65.7329 28.0794 65.4741 27.5608 65.2088C23.8687 63.3201 20.2807 61.2329 16.5341 59.4511C17.2051 60.4444 17.8762 61.4375 18.5472 62.4308C18.6126 61.5584 18.698 60.688 18.8285 59.8227C18.8588 59.6223 19.0362 58.7168 18.9091 59.3056C18.9904 58.9287 19.0759 58.5529 19.1784 58.1811C19.3401 57.5945 19.5593 57.0404 19.7738 56.4731C19.9473 56.0144 19.431 57.0209 19.8325 56.3785C19.9732 56.1533 20.1179 55.9323 20.2625 55.7094C20.6623 55.0933 19.8811 56.0336 20.2138 55.7447C20.3618 55.6164 20.5313 55.4696 20.6677 55.3287C21.079 54.9047 19.978 55.6546 20.605 55.3662C20.6436 55.3483 21.1751 55.0844 21.1809 55.1004C21.2075 55.1756 20.3231 55.283 21.0659 55.1655C21.2494 55.1366 21.4642 55.1265 21.6406 55.0782C21.9656 54.9889 20.8543 55.0588 21.3528 55.1027C21.4408 55.1104 21.5362 55.1032 21.624 55.1061C21.8583 55.1138 22.0887 55.1446 22.3216 55.1655C23.0082 55.2272 21.874 55.0333 22.3068 55.1514C22.5303 55.2123 22.7574 55.2587 22.9804 55.3221C23.4841 55.4656 23.9781 55.6419 24.4641 55.8368C24.907 56.0144 25.3398 56.2131 25.7727 56.4132C24.9363 56.0266 25.848 56.458 26.013 56.543C26.3019 56.6922 26.5888 56.8455 26.8742 57.0014C29.1166 58.2273 31.265 59.6178 33.4367 60.9622C36.0706 62.5925 38.7408 64.1524 41.5761 65.4107C43.0291 66.0555 44.8314 64.9434 45.295 63.54C45.834 61.9086 44.8827 60.4683 43.4244 59.8212C43.1112 59.6821 42.801 59.5382 42.491 59.3924C43.2303 59.7404 42.3131 59.2965 42.1449 59.2099C41.5074 58.8818 40.8781 58.5383 40.2544 58.1847C39.0075 57.4781 37.7838 56.7316 36.5658 55.9767C34.2872 54.5649 32.0327 53.101 29.6645 51.8406C25.5811 49.6672 19.8558 47.4577 16.1295 51.5404C13.5558 54.3604 12.9474 58.3884 12.6728 62.0601C12.5657 63.4931 13.4946 64.4734 14.6859 65.0398C15.3513 65.3561 14.106 64.7445 14.7876 65.0905C14.9935 65.195 15.2007 65.2966 15.4067 65.4009C15.805 65.603 16.2013 65.809 16.5968 66.0164C17.4938 66.4872 18.3853 66.968 19.2768 67.4492C21.2143 68.4945 23.1506 69.5426 25.1179 70.5307C28.9753 72.4683 32.9833 74.3885 37.3114 74.9442C38.8886 75.1468 40.3383 73.7061 40.4337 72.1921C40.5393 70.5188 39.2629 69.2737 37.6815 69.0706Z" fill="#BC9797"/>
</svg>
