<svg width="113" height="123" viewBox="0 0 113 123" fill="none" xmlns="http://www.w3.org/2000/svg">
<path d="M99.5445 42.9987C105.639 49.3119 109.823 56.972 111.788 65.5381C113.555 73.2418 113.335 81.4805 111.268 89.1152C109.218 96.6898 105.51 103.877 100.044 109.567C94.455 115.384 87.4031 119.414 79.4989 121.05C68.5005 123.326 56.9525 121.876 46.3951 118.373C40.7532 116.502 35.3454 113.999 30.3227 110.82C25.0677 107.494 20.3876 103.36 16.2976 98.6815C12.1639 93.9534 8.77036 88.6445 5.95309 83.0372C3.73721 78.627 2.00705 74.0792 0.982227 69.2418C-0.747446 61.0775 -0.200206 52.4577 2.68546 44.6049C5.52022 36.8906 10.746 30.1135 17.4134 25.3201C24.954 19.8989 34.134 17.1023 43.335 16.5322C46.0381 16.3647 48.7525 16.3885 51.4548 16.5387C52.7705 16.6119 53.6829 18.0969 53.4972 19.3144C53.2825 20.7216 52.0357 21.4402 50.7169 21.3669C48.3017 21.2327 46.1031 21.2302 43.4841 21.4086C41.1281 21.5692 38.7808 21.8732 36.4643 22.338C35.9535 22.4404 35.4449 22.5526 34.937 22.6687C35.3848 22.5663 34.5658 22.7614 34.4727 22.7853C34.1902 22.8577 33.9083 22.9326 33.6273 23.0102C32.5576 23.3053 31.4978 23.637 30.4512 24.0066C28.4646 24.7079 26.5496 25.5618 24.6723 26.5165C24.2837 26.7143 24.9641 26.3498 24.4316 26.6454C24.2271 26.7588 24.0228 26.8725 23.82 26.9887C23.3596 27.2523 22.9044 27.5246 22.4544 27.8056C21.622 28.3254 20.8083 28.8749 20.0155 29.4534C19.2091 30.0419 18.4246 30.6606 17.6641 31.3078C17.3242 31.5972 16.9891 31.8923 16.6593 32.1933C16.4847 32.3526 16.1437 32.6757 16.5079 32.327C16.3022 32.5239 16.0977 32.7221 15.8958 32.923C14.5413 34.2712 13.2855 35.7186 12.1436 37.2513C11.5871 37.9982 11.0578 38.7652 10.5566 39.5503C10.4232 39.7592 10.2929 39.97 10.1626 40.1807C10.4262 39.7539 10.2012 40.121 10.0747 40.3382C9.82563 40.7659 9.58477 41.1983 9.35214 41.6351C8.46487 43.3009 7.69959 45.0315 7.06116 46.8071C6.91427 47.2158 6.77401 47.6268 6.64067 48.0401C6.56431 48.2766 6.49017 48.5137 6.41811 48.7516C6.39115 48.8408 6.36639 48.931 6.33812 49.0197C6.2463 49.3085 6.4542 48.5873 6.33406 49.0393C6.09338 49.9449 5.8654 50.8515 5.6782 51.7697C5.29369 53.6553 5.04289 55.5676 4.92392 57.4875C4.89426 57.9653 4.87733 58.443 4.85917 58.9213C4.8773 58.4438 4.8596 58.9693 4.85805 59.1618C4.85566 59.4509 4.85631 59.7402 4.85981 60.0292C4.87165 61.0005 4.91639 61.9711 4.9931 62.9391C5.15211 64.9479 5.44977 66.9448 5.87551 68.9134C5.92519 69.1432 5.97679 69.3725 6.02985 69.6015C5.92247 69.1371 6.06149 69.7223 6.10122 69.8794C6.23467 70.4061 6.37687 70.9305 6.52831 71.4523C6.82588 72.4773 7.15764 73.4921 7.52239 74.4949C9.3958 79.6452 11.9396 84.3899 14.9738 88.917C21.486 98.6333 30.3125 106.256 40.9849 111.029C50.5401 115.302 61.0439 117.762 71.4183 117.168C73.9576 117.022 76.497 116.713 78.9897 116.197C79.2324 116.147 79.474 116.091 79.7162 116.039C79.8279 116.014 80.1626 115.925 79.6496 116.056C79.739 116.033 79.829 116.013 79.9182 115.989C80.3923 115.866 80.865 115.739 81.3345 115.599C82.2049 115.34 83.0652 115.048 83.913 114.722C84.7788 114.39 85.6316 114.023 86.4689 113.624C86.8444 113.445 87.2169 113.259 87.5859 113.067C87.6912 113.012 87.7959 112.957 87.9008 112.901C87.8378 112.934 87.4291 113.164 87.8117 112.946C88.0175 112.829 88.225 112.715 88.4298 112.597C89.9855 111.696 91.4732 110.679 92.8814 109.561C93.5725 109.013 94.2444 108.439 94.8958 107.844C95.1039 107.654 95.3563 107.412 95.0013 107.753C95.1713 107.59 95.341 107.427 95.5088 107.261C95.8444 106.93 96.174 106.593 96.4977 106.25C97.716 104.959 98.8484 103.588 99.8908 102.151C100.433 101.405 100.95 100.64 101.443 99.8607C101.554 99.6842 101.663 99.5061 101.774 99.3288C101.403 99.9236 101.822 99.2425 101.893 99.12C102.12 98.7325 102.341 98.3415 102.556 97.9474C103.434 96.3352 104.215 94.6698 104.895 92.9645C105.231 92.1203 105.543 91.2662 105.831 90.404C105.975 89.9715 106.113 89.537 106.244 89.1005C106.312 88.8774 106.425 88.4511 106.299 88.9202C106.37 88.6554 106.446 88.3918 106.517 88.1267C106.994 86.322 107.366 84.4893 107.631 82.642C107.894 80.8094 108.036 78.9688 108.101 77.1197C108.08 77.7074 108.101 76.973 108.102 76.8163C108.104 76.5997 108.104 76.383 108.103 76.1663C108.1 75.6705 108.089 75.1748 108.071 74.6794C108.036 73.7478 107.973 72.8177 107.883 71.8899C107.698 69.9921 107.397 68.106 106.979 66.2464C106.951 66.1239 106.923 66.0015 106.895 65.879C106.913 65.9574 107.017 66.3676 106.906 65.9359C106.851 65.7225 106.799 65.5086 106.743 65.2954C106.622 64.8379 106.495 64.3821 106.361 63.9286C106.081 62.9866 105.771 62.0539 105.43 61.1326C104.75 59.2963 103.948 57.5055 103.029 55.7771C103.26 56.2116 102.998 55.7263 102.908 55.5642C102.796 55.365 102.684 55.1667 102.57 54.9692C102.308 54.5159 102.037 54.067 101.759 53.6234C101.213 52.7541 100.637 51.9043 100.032 51.0756C99.4569 50.2877 98.8554 49.5189 98.2292 48.7709C97.9229 48.4049 97.6107 48.044 97.2928 47.688C97.1099 47.4832 96.9237 47.2813 96.7384 47.0785C96.7081 47.0455 96.4715 46.791 96.6799 47.014C96.9452 47.2976 96.4761 46.8029 96.4744 46.8011C95.5927 45.8878 95.1649 44.4437 96.1143 43.3696C96.9024 42.478 98.5966 42.0168 99.5445 42.9987Z" fill="#BC9797"/>
<path d="M89.2523 21.226C94.9919 24.9701 100.319 29.7102 104.624 35.0482C106.187 36.9867 107.835 39.2105 108.547 41.6335C108.922 42.9115 109.071 44.2007 108.623 45.4843C108.469 45.9277 108.239 46.352 107.941 46.718C107.166 47.6706 105.88 47.9382 104.707 48.0194C100.944 48.2795 97.6043 46.2598 94.6953 44.1109C94.0362 43.6239 93.3953 43.1129 92.7395 42.6218C92.4554 42.4091 92.1671 42.2021 91.8742 42.0018C91.6958 41.8798 91.5158 41.76 91.3339 41.6433C91.2785 41.6077 90.6619 41.2551 91.1512 41.5262C90.4545 41.1403 89.7619 40.7639 89.0231 40.4622C88.6966 40.3289 88.3652 40.2133 88.0304 40.1027C88.5626 40.2785 87.9218 40.0779 87.8403 40.0592C87.6425 40.0139 87.4434 39.9743 87.2431 39.9422C87.0459 39.9105 86.8476 39.8853 86.6487 39.8683C86.5384 39.8588 85.921 39.89 86.4873 39.8546C86.1626 39.8749 85.8471 39.9081 85.5243 39.9491C84.931 40.0246 85.9362 39.7618 85.3807 39.9905C85.261 40.0398 85.134 40.075 85.0135 40.1237C84.9167 40.1627 84.3655 40.4688 84.8558 40.1743C84.6237 40.3137 84.4001 40.4626 84.1866 40.6294C84.0804 40.7122 83.9806 40.8017 83.877 40.8874C84.3454 40.5003 83.8437 40.9281 83.767 41.0105C83.5276 41.2674 83.3031 41.5377 83.0874 41.8149C82.5549 42.4993 82.083 43.2282 81.6101 43.9543C79.7959 46.7405 77.3489 49.7945 73.5883 48.9504C71.2907 48.4347 69.6418 46.6334 68.8568 44.4656C68.1031 42.3842 68.2402 40.2327 68.4281 38.0663C68.5133 37.0852 68.5727 36.5113 68.5193 35.7119C68.5021 35.4543 68.4627 35.2014 68.4366 34.945C68.3921 34.5082 68.3968 34.6751 68.4268 34.807C68.3737 34.5729 68.2914 34.34 68.2075 34.1156C68.1761 34.0314 67.7938 33.2215 67.9964 33.5897C67.2262 32.1899 65.9684 31.1593 64.718 30.5267C63.011 29.6629 61.4452 29.3486 59.4693 29.1396C57.4373 28.9247 55.3912 28.9258 53.3511 28.8513C51.0733 28.7681 48.9091 28.2945 47.3626 26.4908C46.2407 25.1823 45.9168 23.2863 46.2419 21.6228C46.9266 18.1165 49.5351 15.4663 52.5169 13.7154C55.7556 11.8135 59.3794 10.6213 63.1261 10.3209C66.9714 10.0126 70.6785 10.6474 74.2665 12.0101C74.4633 12.0849 74.6615 12.1549 74.859 12.2276C75.5114 12.468 74.533 12.2255 75.2119 12.3235C75.1487 12.3144 75.927 12.4584 75.6271 12.394C75.3604 12.3368 76.0767 12.3293 75.683 12.4145C76.1046 12.3233 76.2048 12.1848 76.3842 12.0325C76.5409 11.8994 77.0822 11.2564 77.355 10.9084C78.6163 9.30049 79.8009 7.63201 81.1383 6.08443C83.7086 3.11012 87.1387 0.201056 91.2498 0.0124467C94.6279 -0.142461 98.429 1.14549 100.36 4.07687C102.378 7.14064 101.75 11.1072 99.2354 13.7025C96.9769 16.0335 94.0091 17.3612 91.528 19.4042C91.3693 19.5348 91.2164 19.6712 91.0607 19.8054C90.5819 20.218 91.2435 19.5351 91.0244 19.8435C90.8181 20.1338 90.5237 20.3785 90.3036 20.6636C90.2099 20.7847 90.1265 20.9557 90.0165 21.061C89.7679 21.2987 90.2555 20.5569 90.001 21.0851C89.8278 21.4446 89.6641 21.7945 89.5367 22.1738C89.1293 23.3875 87.4355 23.9869 86.3245 23.4439C85.0511 22.8216 84.6291 21.533 85.0653 20.2335C85.8999 17.7475 87.9367 15.8933 90.0315 14.4349C91.0257 13.7428 92.0606 13.112 93.0689 12.4412C93.5586 12.1154 94.0433 11.7811 94.5105 11.4235C94.7231 11.2607 94.9325 11.0939 95.1364 10.9205C95.2362 10.8356 95.3305 10.7426 95.4327 10.6607C95.6732 10.4681 95.1286 10.9971 95.4449 10.6421C95.6127 10.4536 95.7881 10.2743 95.947 10.0776C96.0247 9.98138 96.1006 9.88294 96.1734 9.78275C96.1972 9.74986 96.505 9.24227 96.3061 9.60181C96.1314 9.91767 96.4761 9.23381 96.5113 9.1496C96.5584 9.03727 96.5889 8.91411 96.6419 8.8053C96.7568 8.56972 96.584 9.22271 96.6389 8.78192C96.671 8.5237 96.7127 8.26841 96.7398 8.00912C96.679 8.58984 96.6555 7.70589 96.6729 7.59388C96.7178 7.30247 96.8147 7.93762 96.6963 7.66781C96.6488 7.55957 96.6246 7.43783 96.5826 7.32646C96.5411 7.21608 96.4766 7.10874 96.4436 6.99663C96.3679 6.73933 96.7026 7.358 96.4411 7.00511C96.2979 6.8118 96.162 6.61562 96.014 6.42514C95.7422 6.07545 96.0287 6.44472 96.09 6.49905C95.9744 6.39691 95.8655 6.28826 95.7474 6.18871C95.5576 6.02855 95.3312 5.90067 95.147 5.73701C94.8895 5.50817 95.5341 5.92061 95.2174 5.77522C95.0717 5.70827 94.9337 5.62034 94.7891 5.55003C94.554 5.4356 94.3131 5.33257 94.0682 5.2406C93.9442 5.1941 93.8188 5.1542 93.6941 5.10985C93.1154 4.90395 93.9982 5.13134 93.6293 5.09501C93.0634 5.0395 92.5137 4.88945 91.9395 4.85382C92.4528 4.88574 91.7177 4.86591 91.5591 4.87706C91.2594 4.89791 90.9643 4.94045 90.6679 4.98883C90.5929 5.00111 90.1858 5.1044 90.4872 5.02275C90.7892 4.94079 90.3851 5.05947 90.3154 5.08425C89.988 5.20099 89.6666 5.32321 89.3506 5.46984C88.8005 5.72508 88.3534 6.01002 87.7086 6.48674C87.4186 6.70113 87.1372 6.92615 86.8628 7.16025C86.725 7.27765 86.5892 7.3975 86.4552 7.51924C86.328 7.63596 86.3212 7.64134 86.4343 7.5354C86.3694 7.59945 86.3045 7.66363 86.2396 7.72768C85.1356 8.85392 84.1368 10.0677 83.1741 11.3158C82.2369 12.5311 81.3717 13.8496 80.3089 14.9604C78.9065 16.4261 77.2694 17.3494 75.2009 17.2369C73.6706 17.1536 72.2682 16.4179 70.8334 15.9517C70.6832 15.9028 70.5322 15.8553 70.3808 15.8101C70.751 15.9205 70.3663 15.8071 70.3037 15.7913C69.9587 15.7044 69.614 15.6198 69.2657 15.5469C68.6084 15.4094 67.9445 15.3026 67.277 15.2277C66.9628 15.1924 66.6478 15.1635 66.3323 15.1419C66.1745 15.1311 66.0166 15.1219 65.8586 15.1143C65.9153 15.117 65.1395 15.0966 65.4588 15.0995C65.7205 15.1021 65.2304 15.1029 65.1773 15.1036C65.019 15.1054 64.8608 15.1089 64.7026 15.114C64.3466 15.1256 63.9907 15.1452 63.6356 15.1738C62.9645 15.2279 62.296 15.3117 61.6322 15.4252C61.3198 15.4787 61.0087 15.5385 60.6988 15.6051C60.6468 15.6163 60.1691 15.7279 60.4234 15.6655C60.6653 15.6063 60.0869 15.7565 60.0364 15.7705C58.7397 16.1293 57.4736 16.6031 56.2633 17.1927C56.1914 17.2277 55.3932 17.6528 55.7683 17.4416C55.4576 17.6164 55.1505 17.7964 54.8483 17.9856C54.2928 18.3334 53.7444 18.7027 53.2307 19.1106C53.0801 19.2302 52.5957 19.694 52.9868 19.2972C52.7784 19.5086 52.5749 19.7226 52.3831 19.9498C52.2116 20.153 52.048 20.3624 51.8932 20.5787C51.8165 20.686 51.7508 20.8048 51.6683 20.9072C51.4807 21.1401 51.8632 20.516 51.6515 20.9389C51.5355 21.1704 51.412 21.3961 51.3089 21.6341C51.2519 21.7658 51.0082 22.507 51.0841 22.2109C51.1664 21.8898 51.0229 22.6083 51.0081 22.695C50.9939 22.7796 50.9687 23.1614 50.9838 22.8126C50.9998 22.444 50.9955 22.9242 51.0036 23.0054C51.0143 23.1146 51.0412 23.2233 51.0508 23.3321C51.006 22.8197 50.9613 23.0446 51.036 23.1977C51.0818 23.2914 51.1216 23.4014 51.1624 23.499C50.9319 22.9478 51.0373 23.3143 51.1689 23.4379C51.2407 23.5054 51.5045 23.7394 51.2321 23.5262C50.9209 23.2827 51.3201 23.5808 51.3759 23.6117C51.7496 23.8184 51.0857 23.496 51.4782 23.6615C51.5689 23.6997 52.0173 23.8595 51.7225 23.7767C53.1683 24.1831 54.829 24.0448 56.318 24.0881C57.8925 24.134 59.4705 24.1958 61.032 24.411C64.1526 24.8413 67.2964 25.9131 69.682 28.0362C70.9154 29.134 71.911 30.4237 72.5891 31.9329C73.2856 33.4831 73.4257 35.1635 73.3763 36.8414C73.3545 37.5798 73.2918 38.3143 73.2282 39.0502C73.1982 39.3977 73.1683 39.745 73.1459 40.0931C73.1137 40.5913 73.1062 40.6141 73.1202 40.9005C73.136 41.2291 73.1545 41.5547 73.2031 41.8804C73.2272 42.042 73.2524 42.2125 73.292 42.3722C73.2063 42.0262 73.3547 42.5307 73.3812 42.6088C73.4346 42.7656 73.4929 42.92 73.5575 43.0726C73.5786 43.1222 73.8055 43.5712 73.6769 43.3427C73.5494 43.1167 73.8094 43.5326 73.8404 43.5767C73.9406 43.7196 74.1726 43.9886 73.9166 43.7291C74.0253 43.8393 74.1439 43.9323 74.2618 44.0313C74.63 44.3399 74.3854 44.1009 74.2819 44.0559C74.417 44.1147 74.5632 44.1934 74.7086 44.2308C74.3307 44.1334 74.7531 44.203 74.8483 44.2102C75.1819 44.2352 74.4683 44.2981 74.774 44.2089C74.8734 44.18 75.0175 44.168 75.1213 44.1687C75.4171 44.1707 74.7671 44.3467 75.0087 44.1877C75.1121 44.1196 75.2784 44.071 75.3991 44.027C74.8466 44.2292 75.3793 44.0143 75.5692 43.867C75.6639 43.7936 75.7512 43.7137 75.8435 43.6379C75.3851 44.014 75.7173 43.7619 75.8286 43.6338C76.1994 43.2071 76.5502 42.7735 76.876 42.3108C78.329 40.2458 79.5252 37.8934 81.6701 36.4317C84.128 34.7565 87.0328 34.7303 89.7846 35.5621C92.2593 36.3101 94.4666 37.7813 96.4957 39.3454C97.5272 40.1406 98.5715 40.9139 99.6642 41.6234C100.077 41.8914 99.7813 41.698 99.6917 41.6452C99.8224 41.7224 99.9538 41.7988 100.086 41.873C100.381 42.0382 100.68 42.1953 100.985 42.3418C101.25 42.4698 101.52 42.5894 101.794 42.699C101.908 42.7448 102.793 43.042 102.314 42.9066C102.586 42.9835 102.865 43.0435 103.144 43.0904C103.282 43.1137 103.422 43.1335 103.561 43.1492C103.549 43.1478 104.231 43.1926 103.878 43.1835C103.581 43.1757 104.023 43.1776 104.092 43.1725C104.233 43.1621 104.374 43.1532 104.514 43.1366C104.656 43.1198 104.797 43.0965 104.937 43.0724C105.345 43.0025 104.4 43.2318 105.072 43.0351C104.728 43.2854 104.383 43.5356 104.039 43.7858C104.082 43.739 104.197 43.5443 104.25 43.5222C104.139 43.5689 103.889 44.192 104.083 43.7473C104.251 43.3644 104.026 44.3247 104.018 43.9825C104.016 43.9384 104.031 43.6494 104.063 43.6197C103.866 43.8065 104.113 44.2704 104.037 43.7517C104.02 43.6297 104 43.5053 103.987 43.3828C103.933 42.8822 104.142 43.8453 104.016 43.4883C103.954 43.3135 103.909 43.1323 103.846 42.9572C103.731 42.6356 103.596 42.3214 103.449 42.013C103.409 41.9275 103.144 41.3938 103.33 41.7594C103.503 42.1014 103.201 41.533 103.134 41.4194C102.674 40.6318 102.16 39.8771 101.617 39.1442C101.019 38.3344 100.384 37.5515 99.7274 36.7881C99.399 36.4063 99.0648 36.0298 98.7258 35.6574C98.5267 35.4389 98.3257 35.2223 98.1238 35.0065C98.4611 35.3668 97.8941 34.7693 97.7927 34.6653C96.1252 32.9517 94.3668 31.3259 92.5387 29.7852C90.5139 28.0788 88.4005 26.476 86.1821 25.029C85.1114 24.3305 85.0083 22.5182 85.822 21.5974C86.7727 20.5213 88.1052 20.4778 89.2523 21.226Z" fill="#BC9797"/>
</svg>
